# xmcd
#
# Track frame offsets:
# 150
# 23513
# 43796
# 60362
# 80696
# 95236
# 111379
# 135994
# 149910
# 168762
# 185038
# 208063
#
# Disc length: 3051 seconds
#
# Revision: 0
# Processed by: cddbd v1.5.2PL0 Copyright (c) Steve Scherf et al.
# Submitted via: Audion 3.0.2 (http://www.panic.com/audion/)
#
DISCID=ae0be90c
DTITLE=Hard!!! - Fuck You MOM
DYEAR=1900
DGENRE=
TTITLE0=1
TTITLE1=1
TTITLE2=1
TTITLE3=1
TTITLE4=12
TTITLE5=666
TTITLE6=22
TTITLE7=2
TTITLE8=1
TTITLE9=1
TTITLE10=1
TTITLE11=1
EXTD=
EXTT0=
EXTT1=
EXTT2=
EXTT3=
EXTT4=
EXTT5=
EXTT6=
EXTT7=
EXTT8=
EXTT9=
EXTT10=
EXTT11=
PLAYORDER=
